<svg width="41" height="42" viewBox="0 0 41 42" fill="none" xmlns="http://www.w3.org/2000/svg">
<path d="M36.2655 33.6896C38.3699 31.1577 39.8335 28.1561 40.5326 24.9389C41.2316 21.7217 41.1455 18.3834 40.2815 15.2065C39.4175 12.0296 37.8011 9.10751 35.569 6.68744C33.3368 4.26737 30.5547 2.4205 27.4578 1.30308C24.3609 0.185666 21.0405 -0.169435 17.7774 0.26782C14.5142 0.705075 11.4044 1.92182 8.71099 3.81513C6.01756 5.70844 3.81975 8.22262 2.30349 11.145C0.787232 14.0673 -0.00287585 17.3119 7.86538e-06 20.6042C0.00111445 25.3902 1.6877 30.023 4.7638 33.6896L4.7345 33.7145C4.83707 33.8376 4.9543 33.9431 5.0598 34.0647C5.19168 34.2156 5.33382 34.3578 5.47009 34.5043C5.88039 34.9498 6.3024 35.3777 6.74493 35.7792C6.87974 35.9022 7.01895 36.0165 7.15522 36.1338C7.62413 36.5382 8.10623 36.9221 8.6059 37.2797C8.67038 37.3236 8.72899 37.3808 8.79347 37.4262V37.4086C12.2254 39.8237 16.3196 41.1199 20.5161 41.1199C24.7127 41.1199 28.8068 39.8237 32.2388 37.4086V37.4262C32.3033 37.3808 32.3604 37.3236 32.4263 37.2797C32.9246 36.9206 33.4081 36.5382 33.877 36.1338C34.0133 36.0165 34.1525 35.9008 34.2873 35.7792C34.7298 35.3762 35.1519 34.9498 35.5622 34.5043C35.6984 34.3578 35.8391 34.2156 35.9725 34.0647C36.0765 33.9431 36.1952 33.8376 36.2978 33.713L36.2655 33.6896ZM20.5147 8.88151C21.8188 8.88151 23.0937 9.26824 24.1781 9.9928C25.2625 10.7174 26.1076 11.7472 26.6067 12.9521C27.1058 14.157 27.2364 15.4828 26.982 16.7619C26.7275 18.041 26.0995 19.216 25.1773 20.1382C24.2551 21.0604 23.0802 21.6884 21.8011 21.9428C20.522 22.1972 19.1961 22.0666 17.9912 21.5676C16.7864 21.0685 15.7565 20.2233 15.032 19.1389C14.3074 18.0546 13.9207 16.7797 13.9207 15.4755C13.9207 13.7267 14.6154 12.0495 15.852 10.8128C17.0886 9.57624 18.7658 8.88151 20.5147 8.88151ZM8.80226 33.6896C8.82768 31.7656 9.60958 29.9289 10.9788 28.577C12.348 27.225 14.1945 26.4665 16.1187 26.4655H24.9107C26.8349 26.4665 28.6813 27.225 30.0505 28.577C31.4197 29.9289 32.2016 31.7656 32.2271 33.6896C29.0134 36.5856 24.8407 38.1883 20.5147 38.1883C16.1886 38.1883 12.016 36.5856 8.80226 33.6896Z" fill="white"/>
</svg>
