<svg width="32" height="32" viewBox="0 0 32 32" fill="none" xmlns="http://www.w3.org/2000/svg">
<path fill-rule="evenodd" clip-rule="evenodd" d="M16 5.5C10.201 5.5 5.5 10.201 5.5 16C5.5 21.799 10.201 26.5 16 26.5C21.799 26.5 26.5 21.799 26.5 16C26.5 10.201 21.799 5.5 16 5.5ZM2.5 16C2.5 8.54416 8.54416 2.5 16 2.5C23.4558 2.5 29.5 8.54416 29.5 16C29.5 23.4558 23.4558 29.5 16 29.5C8.54416 29.5 2.5 23.4558 2.5 16Z" fill="white"/>
<path fill-rule="evenodd" clip-rule="evenodd" d="M16 11.5C14.067 11.5 12.5 13.067 12.5 15C12.5 16.933 14.067 18.5 16 18.5C17.933 18.5 19.5 16.933 19.5 15C19.5 13.067 17.933 11.5 16 11.5ZM9.5 15C9.5 11.4101 12.4101 8.5 16 8.5C19.5899 8.5 22.5 11.4101 22.5 15C22.5 18.5899 19.5899 21.5 16 21.5C12.4101 21.5 9.5 18.5899 9.5 15Z" fill="white"/>
<path fill-rule="evenodd" clip-rule="evenodd" d="M15.9999 21.4993C14.6149 21.4993 13.2569 21.8828 12.0765 22.6073C10.8961 23.3319 9.93942 24.3691 9.31243 25.6041C8.93741 26.3428 8.03457 26.6376 7.29589 26.2625C6.55721 25.8875 6.26241 24.9847 6.63743 24.246C7.51522 22.517 8.85462 21.0649 10.5072 20.0505C12.1597 19.0362 14.0609 18.4993 15.9999 18.4993C17.939 18.4993 19.8401 19.0362 21.4927 20.0505C23.1452 21.0649 24.4846 22.517 25.3624 24.246C25.7375 24.9847 25.4426 25.8875 24.704 26.2625C23.9653 26.6376 23.0625 26.3428 22.6874 25.6041C22.0604 24.3691 21.1037 23.3319 19.9233 22.6073C18.7429 21.8828 17.385 21.4993 15.9999 21.4993Z" fill="white"/>
</svg>
