<svg width="24" height="25" viewBox="0 0 24 25" fill="none" xmlns="http://www.w3.org/2000/svg">
<path fill-rule="evenodd" clip-rule="evenodd" d="M10.6515 0.873364C11.02 0.536909 11.501 0.350342 12 0.350342C12.499 0.350342 12.98 0.536909 13.3485 0.873363C13.349 0.873811 13.3495 0.874258 13.35 0.874706L23.3475 9.95996L23.3616 9.973C23.5592 10.1596 23.7175 10.3839 23.8271 10.6327C23.9367 10.8814 23.9955 11.1496 23.9999 11.4213L24 11.4375V23C24 23.5305 23.7893 24.0392 23.4142 24.4142C23.0391 24.7893 22.5304 25 22 25H16C15.4696 25 14.9609 24.7893 14.5858 24.4142C14.2107 24.0392 14 23.5305 14 23V17H10V23C10 23.5305 9.78929 24.0392 9.41421 24.4142C9.03914 24.7893 8.53043 25 8 25H2C1.46957 25 0.960861 24.7893 0.585787 24.4142C0.210714 24.0392 0 23.5305 0 23V11.4375L0.000130832 11.4213C0.00452799 11.1496 0.0632622 10.8814 0.172876 10.6327C0.282489 10.3839 0.440765 10.1596 0.638384 9.973L0.652465 9.95996L10.65 0.874706C10.6505 0.874259 10.651 0.873811 10.6515 0.873364ZM2.00947 11.4292L11.9975 2.35259L12 2.35034L12.0025 2.35259L21.9905 11.4292C21.9932 11.4322 21.9953 11.4355 21.997 11.4392C21.9986 11.443 21.9996 11.447 22 11.4511V23H16V17C16 16.4696 15.7893 15.9609 15.4142 15.5858C15.0391 15.2107 14.5304 15 14 15H10C9.46957 15 8.96086 15.2107 8.58579 15.5858C8.21071 15.9609 8 16.4696 8 17V23H2V11.4511C2.00035 11.447 2.00138 11.443 2.00305 11.4392C2.00465 11.4355 2.00682 11.4322 2.00947 11.4292Z" fill="white"/>
</svg>
