<svg width="62" height="62" viewBox="0 0 62 62" fill="none" xmlns="http://www.w3.org/2000/svg">
<path fill-rule="evenodd" clip-rule="evenodd" d="M62 34.1489V55.1372C62 59.6013 58.402 61.2004 55.9367 61.1338H7.9636C3.56606 61.1338 1.96696 57.5358 1.96696 55.1372V28.1523C1.96696 27.8191 2.10022 27.5526 2.16685 27.2861V27.2195L0.167968 21.556C-0.231808 20.4233 -0.0319207 18.491 2.03359 17.7581L53.1383 0.167968C54.271 -0.231808 56.2032 -0.0319204 56.9362 2.03359L58.8684 7.69708C59.2682 8.82978 59.0683 10.762 57.0028 11.495L17.3583 25.154H59.0017C61.2005 25.154 62 26.953 62 28.1523V34.1489ZM46.7419 4.49888L39.1461 7.09742L44.6097 13.6937L52.2055 11.0952L46.7419 4.49888ZM32.5498 9.36282L24.9541 11.9614L30.3511 18.5577L38.0134 15.9591L32.5498 9.36282ZM10.762 16.8919L16.2256 23.4882L23.8214 20.8897L18.3578 14.2934L10.762 16.8919ZM12.0946 26.1534C12.0946 24.6209 10.8287 23.355 9.29619 23.355C7.69708 23.355 6.49776 24.6209 6.49776 26.1534C6.49776 27.6859 7.76371 28.9518 9.29619 28.9518C10.8287 28.9518 12.0946 27.6859 12.0946 26.1534ZM21.4894 35.1484L24.4877 27.1529H16.4922L13.4938 35.1484H21.4894ZM36.481 35.1484L39.4793 27.1529H31.4838L28.4854 35.1484H36.481ZM51.5392 35.1484L54.5375 27.1529H46.542L43.5437 35.1484H51.5392ZM56.0034 57.1361C56.9362 57.1361 58.0022 56.7363 58.0022 55.1372V37.1473H6.03135V55.1372C6.03135 56.0034 6.43113 57.1361 8.03023 57.1361H56.0034Z" fill="white"/>
</svg>
