<svg width="24" height="24" viewBox="0 0 24 24" fill="none" xmlns="http://www.w3.org/2000/svg">
<path fill-rule="evenodd" clip-rule="evenodd" d="M17.4093 9.83527C17.4093 10.8298 17.2135 11.8146 16.8329 12.7334C16.4523 13.6522 15.8944 14.4871 15.1912 15.1903C14.488 15.8936 13.6531 16.4514 12.7343 16.832C11.8154 17.2126 10.8307 17.4085 9.83613 17.4085C8.8416 17.4085 7.85681 17.2126 6.93799 16.832C6.01916 16.4514 5.1843 15.8936 4.48106 15.1903C3.77782 14.4871 3.21998 13.6522 2.8394 12.7334C2.45881 11.8146 2.26292 10.8298 2.26292 9.83527C2.26292 7.82673 3.06081 5.90046 4.48106 4.48021C5.90131 3.05995 7.82759 2.26206 9.83613 2.26206C11.8447 2.26206 13.7709 3.05995 15.1912 4.48021C16.6114 5.90046 17.4093 7.82673 17.4093 9.83527ZM15.9142 17.4431C13.9698 18.9964 11.5045 19.7464 9.02457 19.5388C6.54461 19.3313 4.23824 18.182 2.57913 16.3271C0.920028 14.4722 0.0341316 12.0525 0.103384 9.56479C0.172636 7.07712 1.19178 4.71038 2.95151 2.95066C4.71124 1.19093 7.07797 0.171782 9.56564 0.102529C12.0533 0.0332771 14.4731 0.919173 16.328 2.57828C18.1829 4.23738 19.3321 6.54375 19.5397 9.02372C19.7472 11.5037 18.9973 13.969 17.444 15.9133L23.5848 22.0519C23.6853 22.1525 23.7651 22.2719 23.8196 22.4034C23.874 22.5348 23.902 22.6757 23.902 22.8179C23.902 22.9602 23.874 23.101 23.8196 23.2325C23.7651 23.3639 23.6853 23.4833 23.5848 23.5839C23.4842 23.6845 23.3647 23.7643 23.2333 23.8187C23.1019 23.8732 22.961 23.9012 22.8188 23.9012C22.6765 23.9012 22.5357 23.8732 22.4042 23.8187C22.2728 23.7643 22.1534 23.6845 22.0528 23.5839L15.9163 17.4431H15.9142Z" fill="white"/>
</svg>
